<?xml version="1.0" encoding="utf-8"?>
<svg xmlns="http://www.w3.org/2000/svg" xmlns:svg="http://www.w3.org/2000/svg" version="1.1" viewBox="0 0 1400 340">
	<title>The titlepage for the Standard Ebooks edition of Nightmare Abbey, by Thomas Love Peacock</title>
	<g>
		<path d="m 220.09429,82.093566 0.18713,0 L 250.97148,130 l 17.59065,0 0,-77.192984 -17.59065,0 0,47.906434 -0.18713,0 -30.69006,-47.906434 -17.59064,0 0,77.192984 17.59064,0 0,-47.906434 z"/>
		<path d="m 302.39693,52.807016 -17.59065,0 0,77.192984 17.59065,0 0,-77.192984 z"/>
		<path d="m 388.48172,86.771929 -35.64912,0 0,13.567251 17.77778,0 c 0,9.45029 -8.32749,14.87719 -16.74854,14.87719 -10.8538,0 -19.64913,-10.66666 -19.64913,-23.766078 0,-13.380117 8.79533,-24.140352 19.64913,-24.140352 6.83041,0 12.72514,2.713451 17.21637,9.918129 L 382.58698,64.59649 c -6.73684,-8.140351 -16.18713,-13.192983 -29.75438,-13.192983 -21.70761,0 -37.61404,17.871346 -37.61404,40.046785 0,22.081868 16.84211,39.953218 37.61404,39.953218 15.15789,0 31.43859,-8.32749 35.64912,-27.88304 l 0,-16.748541 z"/>
		<path d="m 418.93932,99.029239 24.88889,0 0,30.970761 17.59065,0 0,-77.192984 -17.59065,0 0,30.783626 -24.88889,0 0,-30.783626 -17.59064,0 0,77.192984 17.59064,0 0,-30.970761 z"/>
		<path d="m 468.36914,68.245613 18.33918,0 0,61.754387 17.59064,0 0,-61.754387 18.33918,0 0,-15.438597 -54.269,0 0,15.438597 z"/>
		<path d="m 597.78581,130 17.59065,0 -6.92398,-77.192984 -18.71345,0 -17.12281,44.538013 -17.12281,-44.538013 -18.71345,0 L 529.85599,130 l 17.59064,0 3.64912,-45.754387 0.46784,0 15.81287,45.286547 10.47953,0 15.81286,-45.286547 0.46784,0 L 597.78581,130 Z"/>
		<path d="m 666.62791,52.807016 -16.2807,0 L 619.18931,130 l 18.90059,0 5.7076,-15.4386 29.38012,0 5.7076,15.4386 18.90059,0 -31.1579,-77.192984 z m 0.56141,46.31579 -17.40351,0 8.60818,-22.45614 0.18714,0 8.60819,22.45614 z"/>
		<path d="m 705.7054,52.807016 0,77.192984 17.59064,0 0,-30.502925 L 746.87499,130 l 22.36257,0 -26.5731,-31.906433 c 9.4503,-2.994152 15.81287,-10.760234 15.81287,-22.362574 0,-15.157895 -10.8538,-22.923977 -25.16959,-22.923977 l -27.60234,0 z m 17.59064,34.245615 0,-20.210527 2.05848,0 c 6.64328,0 14.59649,0.467836 14.59649,10.105263 0,9.637428 -7.95321,10.105264 -14.59649,10.105264 l -2.05848,0 z"/>
		<path d="m 821.9379,52.807016 -44.16375,0 0,77.192984 44.16375,0 0,-15.4386 -26.5731,0 0,-15.532161 25.45029,0 0,-15.438597 -25.45029,0 0,-15.345029 26.5731,0 0,-15.438597 z"/>
		<path d="m 906.83992,52.807016 -16.2807,0 L 859.40132,130 l 18.90059,0 5.7076,-15.4386 29.38012,0 5.7076,15.4386 18.90058,0 -31.15789,-77.192984 z m 0.5614,46.31579 -17.40351,0 8.60819,-22.45614 0.18713,0 8.60819,22.45614 z"/>
		<path d="m 945.9174,52.807016 0,77.192984 29.28655,0 c 16,0 25.26315,-8.79532 25.26315,-21.52047 0,-12.444443 -6.8304,-17.777776 -16.46782,-19.461987 6.5497,-3.368421 9.63742,-9.450292 9.63742,-16.561404 0,-14.690058 -10.47953,-19.649123 -23.76608,-19.649123 l -23.95322,0 z m 17.59065,30.222223 0,-16.654971 1.40351,0 c 7.67251,0 11.6959,2.339181 11.6959,7.859649 0,6.456141 -4.11696,8.795322 -11.6959,8.795322 l -1.40351,0 z m 0,33.403511 0,-18.245616 5.52047,0 c 8.32748,0 12.91228,2.526316 12.91228,9.637426 0,6.08187 -4.5848,8.60819 -12.91228,8.60819 l -5.52047,0 z"/>
		<path d="m 1013.2347,52.807016 0,77.192984 29.2865,0 c 16,0 25.2632,-8.79532 25.2632,-21.52047 0,-12.444443 -6.8304,-17.777776 -16.4679,-19.461987 6.5497,-3.368421 9.6375,-9.450292 9.6375,-16.561404 0,-14.690058 -10.4796,-19.649123 -23.7661,-19.649123 l -23.9532,0 z m 17.5906,30.222223 0,-16.654971 1.4035,0 c 7.6725,0 11.6959,2.339181 11.6959,7.859649 0,6.456141 -4.1169,8.795322 -11.6959,8.795322 l -1.4035,0 z m 0,33.403511 0,-18.245616 5.5205,0 c 8.3275,0 12.9123,2.526316 12.9123,9.637426 0,6.08187 -4.5848,8.60819 -12.9123,8.60819 l -5.5205,0 z"/>
		<path d="m 1124.7157,52.807016 -44.1638,0 0,77.192984 44.1638,0 0,-15.4386 -26.5731,0 0,-15.532161 25.4503,0 0,-15.438597 -25.4503,0 0,-15.345029 26.5731,0 0,-15.438597 z"/>
		<path d="m 1131.4072,52.807016 28.4444,42.5731 0,34.619884 17.5907,0 0,-34.619884 28.4444,-42.5731 -21.1462,0 -16.0936,24.701755 -16.0935,-24.701755 -21.1462,0 z"/>
	</g>
	<g>
		<path d="m 195.58334,243.68421 13.75438,0 0,46.31579 13.19299,0 0,-46.31579 13.75438,0 0,-11.57895 -40.70175,0 0,11.57895 z"/>
		<path d="m 259.22917,266.77193 18.66667,0 0,23.22807 13.19298,0 0,-57.89474 -13.19298,0 0,23.08772 -18.66667,0 0,-23.08772 -13.19298,0 0,57.89474 13.19298,0 0,-23.22807 z"/>
		<path d="m 302.0307,261.01754 c 0,16.91228 12.07017,30.03509 29.19298,30.03509 16.63158,0 29.12281,-13.12281 29.12281,-30.03509 0,-16.91228 -13.05263,-29.96491 -29.12281,-29.96491 -15.92982,0 -29.19298,13.05263 -29.19298,29.96491 z m 14.24561,0 c 0,-8.63157 4.77193,-17.26315 14.94737,-17.26315 10.24562,0 14.87719,8.63158 14.87719,17.26315 0,8.63158 -4.35087,17.26316 -14.87719,17.26316 -10.80702,0 -14.94737,-8.63158 -14.94737,-17.26316 z"/>
		<path d="m 419.02741,290 13.19298,0 -5.19298,-57.89474 -14.03509,0 -12.8421,33.40351 -12.84211,-33.40351 -14.03508,0 -5.19299,57.89474 13.19299,0 2.73684,-34.31579 0.35088,0 11.85964,33.96491 7.85965,0 11.85965,-33.96491 0.35088,0 L 419.02741,290 Z"/>
		<path d="m 471.90898,232.10526 -12.21053,0 L 436.33003,290 l 14.17544,0 4.2807,-11.57895 22.03509,0 4.2807,11.57895 14.17544,0 -23.36842,-57.89474 z m 0.42105,34.73685 -13.05263,0 6.45614,-16.84211 0.14035,0 6.45614,16.84211 z"/>
		<path d="m 522.42981,231.05263 c -9.33334,0 -18.8772,6.8772 -18.8772,17.68421 0,6.03509 4.07018,11.4386 11.01755,14.8772 6.87719,3.43859 13.05263,5.33333 13.05263,9.54385 0,5.40351 -5.47368,5.68422 -8.35088,5.68422 -6.45614,0 -14.17544,-6.52632 -14.17544,-6.52632 l -6.59649,11.08772 c 0,0 8.21053,7.64912 21.75439,7.64912 11.29824,0 21.82456,-4.8421 21.82456,-18.66666 0,-7.57895 -7.08772,-13.05264 -13.54386,-15.78948 -6.59649,-2.80702 -12.07017,-5.12281 -12.07017,-8.35088 0,-3.15789 2.38596,-5.19298 6.87719,-5.19298 5.96491,0 11.7193,4 11.7193,4 l 5.33333,-10.52631 c 0,0 -7.4386,-5.47369 -17.96491,-5.47369 z"/>
		<path d="m 590.62719,232.10526 -13.19298,0 0,57.89474 33.12281,0 0,-11.57895 -19.92983,0 0,-46.31579 z"/>
		<path d="m 619.44847,261.01754 c 0,16.91228 12.07017,30.03509 29.19298,30.03509 16.63158,0 29.12281,-13.12281 29.12281,-30.03509 0,-16.91228 -13.05263,-29.96491 -29.12281,-29.96491 -15.92982,0 -29.19298,13.05263 -29.19298,29.96491 z m 14.24561,0 c 0,-8.63157 4.77193,-17.26315 14.94737,-17.26315 10.24562,0 14.87719,8.63158 14.87719,17.26315 0,8.63158 -4.35087,17.26316 -14.87719,17.26316 -10.80702,0 -14.94737,-8.63158 -14.94737,-17.26316 z"/>
		<path d="m 704.49779,290 10.38596,0 24.2807,-57.89474 -14.87719,0 -14.59649,38.03509 -14.59649,-38.03509 -14.87719,0 L 704.49779,290 Z"/>
		<path d="m 779.47697,232.10526 -33.12281,0 0,57.89474 33.12281,0 0,-11.57895 -19.92982,0 0,-11.64912 19.08772,0 0,-11.57895 -19.08772,0 0,-11.50877 19.92982,0 0,-11.57895 z"/>
		<path d="m 816.24998,232.10526 0,57.89474 13.19298,0 0,-21.47368 7.92982,0 c 11.29825,0 19.78948,-6.66667 19.78948,-18.5965 0,-11.99999 -8.49123,-17.82456 -19.78948,-17.82456 l -21.1228,0 z M 829.44296,258 l 0,-15.36842 3.7193,0 c 5.19298,0 10.10526,1.75439 10.10526,7.7193 0,5.89473 -4.91228,7.64912 -10.10526,7.64912 l -3.7193,0 z"/>
		<path d="m 901.11076,232.10526 -33.12281,0 0,57.89474 33.12281,0 0,-11.57895 -19.92982,0 0,-11.64912 19.08772,0 0,-11.57895 -19.08772,0 0,-11.50877 19.92982,0 0,-11.57895 z"/>
		<path d="m 943.50987,232.10526 -12.21053,0 L 907.93092,290 l 14.17544,0 4.2807,-11.57895 22.03509,0 4.2807,11.57895 14.17544,0 -23.36842,-57.89474 z m 0.42105,34.73685 -13.05263,0 6.45614,-16.84211 0.14035,0 6.45614,16.84211 z"/>
		<path d="m 1002.682,278.07018 c -13.26316,0 -19.08772,-9.26316 -19.08772,-17.05264 0,-7.71929 5.82456,-16.98245 19.08772,-16.98245 6.7368,0 11.3684,3.57895 11.3684,3.57895 l 5.6141,-11.22807 c 0,0 -6.4562,-5.33334 -19.0176,-5.33334 -16.42105,0 -31.36841,13.47369 -31.36841,30.10527 0,16.5614 15.01754,29.89473 31.36841,29.89473 12.5614,0 19.0176,-5.33333 19.0176,-5.33333 l -5.6141,-11.22807 c 0,0 -4.6316,3.57895 -11.3684,3.57895 z"/>
		<path d="m 1027.0472,261.01754 c 0,16.91228 12.0701,30.03509 29.1929,30.03509 16.6316,0 29.1229,-13.12281 29.1229,-30.03509 0,-16.91228 -13.0527,-29.96491 -29.1229,-29.96491 -15.9298,0 -29.1929,13.05263 -29.1929,29.96491 z m 14.2456,0 c 0,-8.63157 4.7719,-17.26315 14.9473,-17.26315 10.2457,0 14.8772,8.63158 14.8772,17.26315 0,8.63158 -4.3508,17.26316 -14.8772,17.26316 -10.807,0 -14.9473,-8.63158 -14.9473,-17.26316 z"/>
		<path d="m 1126.9912,278.07018 c -13.2632,0 -19.0877,-9.26316 -19.0877,-17.05264 0,-7.71929 5.8245,-16.98245 19.0877,-16.98245 6.7368,0 11.3684,3.57895 11.3684,3.57895 l 5.6141,-11.22807 c 0,0 -6.4562,-5.33334 -19.0176,-5.33334 -16.421,0 -31.3684,13.47369 -31.3684,30.10527 0,16.5614 15.0175,29.89473 31.3684,29.89473 12.5614,0 19.0176,-5.33333 19.0176,-5.33333 l -5.6141,-11.22807 c 0,0 -4.6316,3.57895 -11.3684,3.57895 z"/>
		<path d="m 1206.6546,290 -26.9474,-30.45614 23.2983,-27.4386 -16,0 -19.8597,23.64913 0,-23.64913 -13.1929,0 0,57.89474 13.1929,0 0,-24.5614 21.3334,24.5614 18.1754,0 z"/>
	</g>
</svg>
